# xmcd
#
# Track frame offsets:
#	150
#	14245
#	29659
#	47631
#	67139
#	82419
#	97999
#	117352
#	132744
#	154364
#	170301
#	188377
#	204345
#	222768
#	239022
#	255458
#	276146
#	293813
#	310283
#	332185
#
# Disc length: 4665
#
# Revision: 1
# Processed by: cddbd v1.5.1PL0 Copyright (c) Steve Scherf et al.
# Submitted via: EasyCDDAExtractor 5.0.2.1
# Normalized: r0:DSETVAR1
#
DISCID=38123714
DTITLE=Various Artist - oOo
DYEAR=1900
DGENRE=Balada
TTITLE0=Imagine
TTITLE1=Instant Karma
TTITLE2=Mother
TTITLE3=Jealous Guy
TTITLE4=Power to the People
TTITLE5=Love
TTITLE6=Mind Games
TTITLE7=Whatever Geb You Through the Night
TTITLE8=To Dream
TTITLE9=Stand by Me
TTITLE10=Startin´Over
TTITLE11=Woman
TTITLE12=Beatiful Boy
TTITLE13=Whatching the Wheels
TTITLE14=Nobody Told Me
TTITLE15=Borrowed Fine
TTITLE16=John Lennon - Working Class Hero
TTITLE17=Happy Xmas
TTITLE18=Give Peace a Chance
TTITLE19=Cold
EXTD=
EXTT0=
EXTT1=
EXTT2=
EXTT3=
EXTT4=
EXTT5=
EXTT6=
EXTT7=
EXTT8=
EXTT9=
EXTT10=
EXTT11=
EXTT12=
EXTT13=
EXTT14=
EXTT15=
EXTT16=
EXTT17=
EXTT18=
EXTT19=
PLAYORDER=
